# xmcd
#
# Track frame offsets:
#	150
#	16453
#	35869
#	53496
#	79613
#	97261
#	111292
#	119721
#	141938
#	156040
#	170729
#	188724
#	201579
#	216178
#
# Disc length: 3239 seconds
#
# Revision: 1
# Processed by: cddbd v1.5.2PL0 Copyright (c) Steve Scherf et al.
# Submitted via: audiograbber 1.83.01
#
DISCID=d30ca50e
DTITLE=The Rhythm Chiefs - Ships Of Wonder
DYEAR=2008
DGENRE=Blues
TTITLE0=High Water
TTITLE1=Gone Ridin'
TTITLE2=Tell Me
TTITLE3=Ships Of Wonder
TTITLE4=Five More Miles
TTITLE5=Break That Bottle
TTITLE6=Tribute To Jimmy B.
TTITLE7=The Buzz
TTITLE8=Please Don't Love Me
TTITLE9=It Wasn't Me
TTITLE10=What's Your Color
TTITLE11=Here Comes The Rain Again
TTITLE12=Looky There
TTITLE13=Chiefs
EXTD=
EXTT0=
EXTT1=
EXTT2=
EXTT3=
EXTT4=
EXTT5=
EXTT6=
EXTT7=
EXTT8=
EXTT9=
EXTT10=
EXTT11=
EXTT12=
EXTT13=
PLAYORDER=
